<svg width="65" height="63" viewBox="0 0 65 63" fill="none" xmlns="http://www.w3.org/2000/svg">
<path fill-rule="evenodd" clip-rule="evenodd" d="M32.2677 0.0783466C14.5245 0.0350601 0.118218 14.426 0.0747659 32.237C0.0399651 46.5018 9.20328 58.5728 21.9583 62.8754C23.5633 63.1613 24.1678 62.1957 24.1699 61.3495C24.1717 60.5839 24.1378 58.0451 24.1444 55.3453C16.072 56.8165 13.9931 53.346 13.3552 51.5311C12.9962 50.6034 11.4376 47.7385 10.0746 46.9696C8.95207 46.3624 7.34999 44.8675 10.0397 44.8338C12.5688 44.7996 14.3694 47.1815 14.9692 48.1501C17.8476 53.033 22.4673 51.6742 24.316 50.8325C24.6021 48.7378 25.4485 47.3294 26.3738 46.5258C19.2303 45.7024 11.7705 42.9038 11.8006 30.5731C11.8092 27.0674 13.0607 24.1691 15.1135 21.9175C14.7943 21.1108 13.6783 17.8037 15.4554 13.3755C15.4554 13.3755 18.1471 12.5358 24.2788 16.7013C26.8497 15.9822 29.5803 15.6262 32.31 15.6329C35.0397 15.6395 37.7686 16.0089 40.3359 16.7405C46.488 12.5646 49.1754 13.4577 49.1754 13.4577C50.9309 17.8946 49.7988 21.1962 49.4757 22.0013C51.5175 24.2629 52.755 27.1269 52.7463 30.673C52.7161 43.0439 45.2027 45.7658 38.0553 46.5543C39.217 47.5645 40.2159 49.5012 40.2085 52.5234C40.198 56.8351 40.1494 60.3005 40.1467 61.3885C40.1447 62.2347 40.7443 63.2436 42.3508 62.9251C55.0464 58.6847 64.2686 46.6182 64.3033 32.3937C64.3468 14.5827 50.0108 0.121633 32.2677 0.0783466Z" fill="#505050"/>
</svg>
