<svg width="73" height="62" viewBox="0 0 73 62" fill="none" xmlns="http://www.w3.org/2000/svg">
<g clip-path="url(#clip0_285_13)">
<mask id="mask0_285_13" style="mask-type:luminance" maskUnits="userSpaceOnUse" x="4" y="0" width="65" height="63">
<path d="M68.9444 0H4.05556V62.2222H68.9444V0Z" fill="white"/>
</mask>
<g mask="url(#mask0_285_13)">
<g filter="url(#filter0_d_285_13)">
<mask id="mask1_285_13" style="mask-type:luminance" maskUnits="userSpaceOnUse" x="4" y="0" width="65" height="63">
<path d="M68.9444 0H4.05556V62.2222H68.9444V0Z" fill="white"/>
</mask>
<g mask="url(#mask1_285_13)">
<path d="M36.5 62.2222C54.4186 62.2222 68.9444 48.2933 68.9444 31.1111C68.9444 13.9289 54.4186 0 36.5 0C18.5814 0 4.05556 13.9289 4.05556 31.1111C4.05556 48.2933 18.5814 62.2222 36.5 62.2222Z" fill="#505050"/>
<path fill-rule="evenodd" clip-rule="evenodd" d="M17.2361 20.912V41.3194L23.6304 41.2826V33.0044C24.3908 33.0044 25.1055 33.0337 25.7577 33.4704C26.2542 33.9096 26.6489 34.4492 26.9147 35.0525L30.3358 41.2826H37.5139C36.0901 38.5656 34.9494 35.129 32.5004 33.0657C31.9836 32.7395 31.4223 32.4876 30.8334 32.3176C31.6205 32.1591 32.3793 31.8863 33.0851 31.5082C34.8631 30.467 35.8831 28.5647 35.8345 26.578C35.8712 25.4069 35.5363 24.2536 34.8766 23.279C33.3829 21.0858 30.3494 20.8263 27.8478 20.912H17.2361ZM26.3549 29.1779H23.6553V24.9837H26.4669C27.8624 24.8494 29.5867 25.4483 29.4899 27.0318C29.5548 28.7409 27.7448 29.0818 26.3549 29.1779Z" fill="black"/>
<g style="mix-blend-mode:plus-darker">
<path d="M44.0806 34.1143L37.5139 34.4814C37.6418 36.3291 38.5299 38.0722 40.0117 39.3836C41.4799 40.6703 44.1119 41.3137 47.9078 41.3137C51.0558 41.3995 54.6545 40.6531 56.5963 38.0692C57.3789 37.0353 57.795 35.8193 57.7915 34.5761C57.8137 32.263 56.2038 30.3622 54.0447 29.4726C51.9752 28.6578 49.802 28.0655 47.5721 27.7083C46.7511 27.6208 45.9623 27.3742 45.2623 26.986C44.5137 26.5025 44.6902 25.4987 45.3563 25.0441C47.2557 23.8396 50.3192 24.8447 50.5533 27.1281L57.0662 26.7965C56.9504 25.0522 55.9508 23.3863 54.3805 22.3206C52.4167 21.2807 50.14 20.7933 47.8541 20.9234C45.9791 20.8568 44.1079 21.1184 42.3483 21.693C40.1583 22.4705 38.3544 24.3678 38.3599 26.6899C38.318 28.1339 39.0507 29.5641 40.3072 30.4909C42.2238 31.7176 44.4413 32.5288 46.7798 32.8592C48.0414 33.0203 49.2473 33.4245 50.3116 34.0432C51.2904 34.7384 51.2832 36.1346 50.2847 36.8378C49.1815 37.5795 47.5548 37.6655 46.3163 37.1844C44.988 36.6683 44.2104 35.4651 44.0806 34.1143Z" fill="black"/>
</g>
</g>
</g>
</g>
</g>
<defs>
<filter id="filter0_d_285_13" x="0.0555573" y="0" width="72.8889" height="70.2222" filterUnits="userSpaceOnUse" color-interpolation-filters="sRGB">
<feFlood flood-opacity="0" result="BackgroundImageFix"/>
<feColorMatrix in="SourceAlpha" type="matrix" values="0 0 0 0 0 0 0 0 0 0 0 0 0 0 0 0 0 0 127 0" result="hardAlpha"/>
<feOffset dy="4"/>
<feGaussianBlur stdDeviation="2"/>
<feComposite in2="hardAlpha" operator="out"/>
<feColorMatrix type="matrix" values="0 0 0 0 0 0 0 0 0 0 0 0 0 0 0 0 0 0 0.25 0"/>
<feBlend mode="normal" in2="BackgroundImageFix" result="effect1_dropShadow_285_13"/>
<feBlend mode="normal" in="SourceGraphic" in2="effect1_dropShadow_285_13" result="shape"/>
</filter>
<clipPath id="clip0_285_13">
<rect width="73" height="62" fill="white"/>
</clipPath>
</defs>
</svg>
